PathFileType	4	(X/Y/Z)	C:/Users/beibeiliu/ov580/test_trc/capture2\sequence.14_training_dense_left.trc
DataRate	CameraRate	NumFrames	NumMarkers	Units	OrigDataRate	OrigDataStartFrame	OrigNumFrames
120	120	15	19	mm	120	51	400
Frame#	Time	ThumbCMC			ThumbMCP			ThumbIP			ThumbTip			IndexMCP			IndexPIP			IndexTip			MiddleMCP			MiddlePIP			MiddleTip			RingMCP			RingPIP			RingTip			PinkyMCP			PinkyPIP			PinkyTip			BackHand1			BackHand2			BackHand3	
		X0	Y0	Z0	X1	Y1	Z1	X2	Y2	Z2	X3	Y3	Z3	X4	Y4	Z4	X5	Y5	Z5	X6	Y6	Z6	X7	Y7	Z7	X8	Y8	Z8	X9	Y9	Z9	X10	Y10	Z10	X11	Y11	Z11	X12	Y12	Z12	X13	Y13	Z13	X14	Y14	Z14	X15	Y15	Z15	X16	Y16	Z16	X17	Y17	Z17	X18	Y18	Z18	
50	0.416667	-143.744	104.033	-40.8028	-112.451	106.823	-63.0066	-94.9872	100.865	-83.0701	-83.9292	79.7414	-99.1972	-155.274	84.7701	-110.235	-146.984	83.3142	-137.758	-143.071	85.1633	-158.346	-126.628	67.9434	-109.093	-98.8917	83.3533	-104.217	-106.782	88.3475	-69.6026	-114.741	55.7585	-98.9883	-90.4356	74.9672	-84.988	-109.35	81.3202	-56.382	-114.679	31.7535	-91.2283	-101.378	29.0346	-105.218	-92.9008	25.694	-125.74	-152.333	40.765	-55.7338	-158.284	43.1568	-28.7717	-169.242	68.8474	-48.8198	
51	0.425	-151.448	101.135	-41.1918	-119.565	112.463	-61.3301	-100.483	103.767	-80.9191	-85.8132	80.2604	-94.7725	-156.55	75.6578	-112.718	-149.361	79.1425	-136.744	-142.844	77.0085	-161.256	-127.622	65.7602	-108.591	-104.618	86.6076	-110.225	-110.287	95.7845	-69.2526	-113.415	59.4982	-98.5791	-95.9316	83.0414	-86.5966	-110.424	84.1236	-57.4985	-108.531	31.4741	-85.521	-94.1683	34.0537	-106.285	-83.9848	33.1334	-125.2	-147.639	38.2276	-56.3363	-152.744	38.4847	-26.1247	-171.593	62.6094	-49.9193	
52	0.433333	-157.121	92.6491	-43.5569	-130.518	109.157	-60.624	-105.691	101.671	-86.3277	-92.3474	77.8782	-87.633	-155.936	67.4275	-110.56	-149.573	71.7997	-134.492	-141.872	71.3269	-159.405	-122.908	63.4069	-109.479	-106.282	88.0252	-110.894	-111.768	106.443	-77.6725	-109.503	57.0779	-94.5243	-98.4626	85.8194	-86.8217	-115.082	86.4608	-56.5447	-102.966	34.8982	-84.235	-89.3452	38.4302	-104.57	-75.8523	33.5536	-125.069	-141.879	36.017	-55.3567	-149.716	33.8033	-22.1729	-170.138	55.1382	-50.7561	
53	0.441667	-163.972	89.9996	-39.2044	-143.73	101.445	-69.1331	-122.045	91.0435	-89.4953	-107.369	69.5834	-81.325	-155.998	64.5475	-108.525	-150.665	70.0088	-133.893	-145.492	70.2995	-155.576	-126.118	68.8058	-108.091	-106.39	94.7492	-106.703	-107.534	110.817	-74.6809	-111.724	62.0294	-96.7468	-96.5842	86.7487	-89.1116	-110.566	95.3425	-60.7776	-102.924	38.4336	-83.4085	-89.9151	42.395	-102.878	-77.1341	38.8857	-122.242	-137.849	30.8675	-49.329	-146.749	32.7366	-23.0848	-168.985	51.1709	-49.4833	
54	0.45	-166.092	85.1752	-42.0198	-149.499	97.8444	-65.8325	-127.986	88.1667	-87.6724	-110.801	68.7279	-77.2752	-155.987	61.7378	-108.206	-151.683	66.7989	-135.792	-146.226	67.4574	-155.301	-123.839	65.7863	-104.655	-109.893	96.8895	-103.78	-112.372	112.536	-71.762	-107.973	59.1937	-93.9883	-95.751	89.4186	-88.1292	-111.21	97.4053	-62.1514	-98.9187	40.2323	-84.3228	-87.4153	44.1692	-101.226	-75.2663	44.7497	-121.932	-134.623	30.4758	-50.4535	-141.474	32.4987	-19.9235	-166.339	49.1986	-46.1775	
55	0.458333	-164.509	82.4272	-38.652	-149.297	96.476	-66.8672	-128.509	86.6704	-83.1577	-107.258	67.1371	-77.8942	-155.147	59.4716	-104.91	-150.473	65.4196	-131.659	-145.05	65.9627	-155.44	-126.416	67.2055	-103.967	-112.41	98.4043	-104.037	-111.922	111.415	-72.292	-111.846	59.3742	-93.7888	-97.9776	92.4328	-88.8772	-111.459	99.4533	-62.0696	-96.9213	40.4355	-81.4344	-88.0939	45.9374	-98.5205	-69.8041	46.6164	-122.23	-134.767	33.1802	-49.2877	-142.727	32.7097	-22.3252	-165.881	44.7077	-42.2608	
56	0.466667	-165.903	81.1977	-39.9546	-150.471	96.4194	-66.4916	-128.589	88.2768	-86.3743	-107.564	69.5232	-79.1429	-156.324	59.3784	-106.924	-152.484	65.7896	-130.436	-147.068	66.7166	-152.942	-124.857	68.1656	-104.668	-110.967	98.3073	-101.049	-114.457	110.728	-67.3262	-110.183	59.9687	-92.701	-98.6667	92.5432	-88.0409	-115.348	99.1415	-60.7471	-98.5029	42.651	-78.5745	-86.6452	47.3774	-96.6765	-69.1986	47.7836	-119.422	-128.787	29.925	-51.9424	-138.957	29.004	-18.5873	-163.81	45.6531	-45.5813	
57	0.475	-164.551	79.6468	-34.7581	-151.617	94.6848	-62.1576	-128.356	85.0306	-81.9579	-110.24	70.0789	-75.4686	-155.02	60.2502	-108.444	-148.973	64.2118	-130.923	-144.408	66.9002	-155.123	-123.326	67.2186	-103.689	-110.951	95.0006	-103.374	-115.779	110.962	-66.5177	-107.995	63.659	-95.685	-100.333	93.0342	-90.1429	-112.706	99.6014	-62.373	-94.9223	42.6396	-79.3117	-80.5694	47.0853	-98.7215	-68.3642	45.7761	-117.434	-127.42	31.5453	-48.6108	-140.591	30.2794	-21.2593	-161.846	42.5621	-42.4209	
58	0.483333	-167.075	81.1785	-34.7248	-151.528	94.0503	-61.7917	-133.194	89.1753	-82.6282	-110.039	70.0443	-78.5763	-154.287	58.8004	-104.786	-149.266	63.7328	-128.686	-142.431	66.4183	-157.354	-123.487	65.2143	-101.43	-110.376	98.2639	-100.377	-115.433	111.925	-67.5506	-107.1	60.1793	-92.9813	-98.2634	91.9043	-87.9192	-112.193	98.3048	-61.5736	-92.9776	41.984	-79.6752	-82.7933	47.7539	-97.3686	-67.3465	47.897	-119.597	-130.169	32.1762	-52.1944	-137.197	29.5595	-19.3292	-159.957	41.496	-43.6468	
59	0.491667	-166.184	80.876	-33.5511	-150.059	95.6692	-60.5361	-132.042	92.6565	-82.2585	-109.394	74.6385	-80.3148	-155.1	59.3855	-108.575	-152.062	65.8663	-132.502	-142.569	65.7931	-152.234	-121.486	65.1103	-104.081	-110.939	93.81	-104.78	-111.713	106.921	-69.5516	-104.841	62.1646	-94.1531	-100.568	92.1361	-86.1159	-115.111	92.3922	-54.9582	-93.1629	42.1611	-77.5493	-78.2076	47.7575	-100.168	-67.8814	49.5164	-117.239	-125.788	28.4063	-46.4789	-134.856	26.369	-19.6668	-162.384	41.8019	-43.7755	
60	0.5	-163.919	81.3034	-35.1594	-142.881	101.304	-56.1854	-121.649	106	-81.0324	-102.511	89.8633	-85.0288	-153.014	56.8944	-103.188	-148.084	62.4858	-129.1	-139.84	65.0271	-156.025	-125.586	61.5705	-105.768	-110.729	88.2359	-105.855	-122.23	99.0677	-68.8227	-104.747	60.8409	-93.31	-98.4862	89.9775	-82.5133	-116.504	88.7755	-56.4184	-93.5841	41.661	-79.6608	-78.2542	46.4175	-97.1417	-66.1377	44.9671	-116.325	-126.877	28.9441	-51.7133	-136.517	27.1614	-18.6313	-156.294	39.6312	-42.6798	
61	0.508333	-160.975	82.7131	-37.0936	-138.377	104.292	-56.1627	-119.827	110.153	-77.7159	-96.7557	95.3189	-90.9898	-150.2	56.3344	-104.139	-145.974	63.1392	-130.534	-142.64	67.5585	-154.363	-122.502	63.4499	-105.687	-109.479	90.6567	-99.2278	-123.787	91.6556	-65.7567	-101.823	59.4585	-91.0437	-98.9724	89.7366	-82.5257	-115.251	84.4742	-52.366	-89.1911	38.9999	-80.9574	-78.1826	45.1245	-99.4471	-67.803	46.3778	-118.504	-124.695	28.385	-51.8431	-134.533	27.6042	-22.0344	-162.028	40.2911	-42.6419	
62	0.516667	-158.953	83.1899	-35.6272	-134.692	102.873	-58.563	-118.585	107.509	-76.3074	-96.4245	91.9294	-91.0522	-151.478	59.0516	-107.75	-147.909	65.4157	-129.524	-139.083	68.8779	-155.893	-122.833	63.5181	-103.739	-111.154	92.9979	-96.6781	-121.557	87.9376	-62.7561	-102.068	60.6551	-92.6836	-98.346	88.7997	-84.1875	-115.831	83.7703	-52.5883	-92.1153	38.0414	-81.0488	-79.1139	43.2261	-99.3177	-66.9332	41.8499	-120.472	-130.125	27.2946	-48.2781	-137.745	28.4225	-21.7754	-159.926	41.7039	-43.2609	
63	0.525	-156.183	83.7189	-35.7475	-133.578	103.352	-56.6947	-116.421	106.08	-77.6289	-95.9267	90.0276	-90.2157	-152.593	61.7103	-106.235	-147.464	68.6727	-131.887	-141.636	72.1565	-155.782	-120.944	64.8118	-104.022	-108.967	91.1299	-97.4117	-124.273	88.3212	-63.3559	-105.545	57.5501	-91.8262	-97.6696	87.494	-82.8469	-111.954	84.5133	-53.0756	-97.3422	36.849	-80.6481	-81.421	40.747	-98.9426	-73.0785	41.5081	-122.541	-132.335	28.8779	-50.2119	-136.291	24.2338	-19.5083	-161.956	42.7861	-45.3966	
64	0.533333	-153.435	84.255	-35.9964	-130.156	105.486	-53.0988	-111.368	107.818	-81.2049	-94.8857	89.4709	-89.5821	-153.898	65.5833	-107.604	-149.778	73.3656	-132.372	-146.088	77.4808	-151.912	-125.15	66.757	-104.603	-106.924	91.6842	-94.0029	-121.461	86.9874	-60.849	-104.273	57.8346	-94.2115	-94.6108	85.2698	-83.2885	-112.55	84.7517	-53.5873	-100.842	36.8313	-83.848	-86.4917	38.9779	-102.335	-73.8765	36.4422	-121.115	-134.315	28.4831	-50.8131	-140.062	28.0886	-21.2981	-162.491	48.4721	-43.3751	
